<svg xmlns="http://www.w3.org/2000/svg"
     width="30mm" height="30mm"
     viewBox="0 0 336 303">
  <path id="Selection"
        fill="black" stroke="black" stroke-width="1"
        d="M 124.00,34.00
           C 124.60,36.64 126.15,43.48 128.51,44.89
             130.78,46.25 135.57,44.37 138.00,43.73
             146.92,41.39 150.90,41.00 160.00,41.00
             160.00,41.00 160.00,59.00 160.00,59.00
             141.44,60.52 123.85,67.22 109.00,78.37
             103.30,82.65 100.10,85.56 95.43,91.00
             93.74,92.97 90.47,97.62 87.83,97.99
             84.76,98.41 75.92,91.83 73.00,90.00
             73.00,90.00 94.00,66.00 94.00,66.00
             94.00,66.00 86.00,56.00 86.00,56.00
             69.91,65.39 53.25,92.31 47.33,110.00
             46.09,113.70 41.68,125.46 42.77,128.77
             43.86,132.13 52.57,134.12 54.84,131.42
             55.86,130.21 57.56,123.01 58.14,121.00
             58.14,121.00 65.00,103.00 65.00,103.00
             68.84,104.66 79.22,108.71 80.03,113.09
             80.46,115.45 77.06,123.21 76.20,126.00
             73.78,133.93 72.56,142.74 72.09,151.00
             71.77,156.68 73.82,172.30 75.43,178.00
             76.32,181.15 80.05,190.35 79.37,192.96
             78.32,196.96 68.70,201.35 65.00,203.00
             60.33,192.15 57.36,184.73 55.00,173.00
             52.06,173.03 44.90,173.01 42.96,175.58
             41.78,177.32 42.47,180.08 42.96,182.00
             42.96,182.00 47.69,198.00 47.69,198.00
             53.17,213.07 60.32,224.85 70.73,237.00
             75.05,242.04 79.42,248.07 86.00,250.00
             88.18,246.91 92.79,242.93 91.26,239.01
             91.26,239.01 77.29,223.00 77.29,223.00
             74.57,219.15 72.60,216.44 77.29,212.90
             79.81,210.74 85.87,206.70 89.25,208.99
             89.25,208.99 98.09,219.00 98.09,219.00
             102.16,223.32 109.05,228.89 114.00,232.25
             123.16,238.47 133.35,242.46 144.00,245.27
             144.00,245.27 154.94,247.42 154.94,247.42
             159.66,248.95 158.99,252.89 159.00,257.00
             159.00,257.00 159.00,266.00 159.00,266.00
             150.56,265.99 145.13,265.07 137.00,262.85
             134.59,262.19 129.73,260.17 127.48,261.36
             126.24,262.01 120.23,270.96 126.13,273.87
             133.23,277.37 150.88,279.99 159.00,280.00
             176.89,280.03 185.30,280.61 203.00,275.36
             213.66,272.19 205.64,262.34 203.78,261.69
             201.31,260.84 195.73,263.12 193.00,263.76
             185.57,265.51 180.58,266.00 173.00,266.00
             173.00,266.00 173.00,248.00 173.00,248.00
             191.73,245.53 206.43,241.64 222.00,230.24
             227.13,226.49 233.60,220.72 237.83,216.00
             239.56,214.06 242.61,209.37 245.17,209.01
             247.63,208.67 257.09,214.60 260.00,216.00
             256.57,222.11 252.90,226.99 247.99,232.00
             245.92,234.10 240.92,238.12 240.71,241.09
             240.41,245.20 245.72,251.10 250.00,249.12
             253.01,247.72 260.98,238.89 263.41,236.00
             276.08,220.96 289.38,195.86 291.00,176.00
             291.00,176.00 278.00,174.00 278.00,174.00
             278.00,174.00 268.00,204.00 268.00,204.00
             268.00,204.00 252.00,196.00 252.00,196.00
             252.00,196.00 256.64,182.00 256.64,182.00
             259.14,174.34 260.99,162.06 261.00,154.00
             261.01,145.68 259.64,134.97 257.28,127.00
             256.50,124.38 252.81,115.54 253.52,113.52
             254.57,110.50 264.91,105.61 268.00,104.00
             273.67,116.78 275.34,119.89 278.00,134.00
             280.79,133.94 288.22,133.72 289.97,131.41
             292.37,128.25 288.21,117.70 287.14,114.00
             282.73,98.67 273.66,83.15 263.41,71.00
             261.02,68.17 253.26,59.30 250.00,58.49
             246.29,57.56 239.62,63.70 242.64,69.00
             242.64,69.00 256.37,85.00 256.37,85.00
             257.41,86.41 259.94,89.35 259.40,91.21
             258.90,92.94 254.56,95.11 253.00,96.00
             251.74,96.72 249.34,98.14 248.00,98.49
             243.98,99.57 242.35,96.77 240.12,93.99
             236.17,89.10 231.86,84.47 227.00,80.46
             217.03,72.26 205.35,66.39 193.00,62.72
             193.00,62.72 177.15,59.27 177.15,59.27
             173.65,57.64 174.02,54.29 174.00,51.00
             174.00,51.00 174.00,41.00 174.00,41.00
             188.18,41.00 192.81,43.15 206.00,47.00
             207.18,44.46 210.34,38.09 209.33,35.42
             208.58,33.40 205.83,32.64 204.00,32.00
             199.91,30.58 192.29,28.78 188.00,28.13
             169.18,25.30 141.54,26.31 124.00,34.00 Z
           M 247.00,152.00
           C 227.80,156.34 207.83,161.76 188.00,162.00
             188.00,162.00 169.00,162.71 169.00,162.71
             169.00,162.71 162.00,162.71 162.00,162.71
             162.00,162.71 147.00,162.00 147.00,162.00
             136.81,161.98 119.31,159.54 109.00,157.75
             105.19,157.09 89.89,154.01 87.66,151.91
             84.38,149.04 86.78,137.82 87.66,134.00
             92.18,116.41 101.81,101.16 116.00,89.81
             157.27,56.79 220.21,72.16 241.13,121.00
             246.11,132.63 247.00,139.58 247.00,152.00 Z
           M 123.00,103.47
           C 117.11,104.87 112.52,107.05 108.79,112.04
             97.93,126.56 106.04,150.08 126.00,150.96
             135.29,151.37 143.21,148.02 148.34,139.99
             156.14,127.77 150.73,109.80 137.00,104.56
             132.37,102.79 127.82,102.79 123.00,103.47 Z
           M 201.00,103.53
           C 194.27,105.52 188.88,108.78 185.22,115.00
             175.06,132.30 189.95,155.56 212.00,150.47
             229.31,146.48 235.93,124.37 224.61,111.09
             218.85,104.33 209.47,102.15 201.00,103.53 Z
           M 163.23,148.02
           C 157.07,153.70 161.67,161.04 167.98,159.67
             175.77,157.97 174.22,144.15 163.23,148.02 Z
           M 96.00,191.00
           C 90.79,185.37 87.64,174.58 87.00,167.00
             87.00,167.00 95.01,169.72 95.01,169.72
             95.01,169.72 96.00,175.00 96.00,175.00
             96.00,175.00 96.00,191.00 96.00,191.00 Z
           M 246.00,167.00
           C 245.66,173.96 242.16,188.29 236.00,192.00
             236.00,192.00 236.00,177.00 236.00,177.00
             236.00,177.00 236.99,169.72 236.99,169.72
             236.99,169.72 246.00,167.00 246.00,167.00 Z
           M 126.00,174.00
           C 126.00,174.00 126.00,222.00 126.00,222.00
             120.90,221.22 112.51,215.92 110.60,210.96
             109.57,208.29 110.00,192.03 110.00,188.00
             110.00,184.89 109.16,174.87 111.60,173.04
             113.79,171.38 123.12,173.48 126.00,174.00 Z
           M 222.00,172.00
           C 223.70,181.47 223.02,193.21 223.00,203.00
             223.00,205.96 223.21,209.29 221.83,211.99
             219.35,216.81 212.05,221.39 207.00,223.00
             207.00,223.00 207.00,188.00 207.00,188.00
             207.00,185.27 206.48,176.63 207.99,174.74
             209.95,172.29 218.91,172.03 222.00,172.00 Z
           M 159.00,234.00
           C 155.01,233.91 143.45,232.68 141.02,229.44
             140.03,228.13 139.84,225.60 139.87,224.00
             139.87,224.00 139.87,204.00 139.87,204.00
             139.87,204.00 139.04,188.00 139.04,188.00
             139.04,188.00 140.00,176.00 140.00,176.00
             140.00,176.00 152.00,176.00 152.00,176.00
             159.49,176.14 158.99,178.26 159.00,185.00
             159.00,185.00 159.00,234.00 159.00,234.00 Z
           M 193.00,176.00
           C 193.00,176.00 193.00,224.00 193.00,224.00
             192.96,225.74 193.03,228.01 191.98,229.49
             189.38,233.15 177.30,233.99 173.00,234.00
             173.00,234.00 173.00,185.00 173.00,185.00
             173.02,177.27 172.87,176.06 181.00,176.00
             181.00,176.00 193.00,176.00 193.00,176.00 Z" />
</svg>